<?xml version="1.0" encoding="UTF-8" standalone="no"?>
<!-- Created with Inkscape (http://www.inkscape.org/) -->

<svg
   xmlns:dc="http://purl.org/dc/elements/1.1/"
   xmlns:cc="http://creativecommons.org/ns#"
   xmlns:rdf="http://www.w3.org/1999/02/22-rdf-syntax-ns#"
   xmlns:svg="http://www.w3.org/2000/svg"
   xmlns="http://www.w3.org/2000/svg"
   xmlns:xlink="http://www.w3.org/1999/xlink"
   xmlns:sodipodi="http://sodipodi.sourceforge.net/DTD/sodipodi-0.dtd"
   xmlns:inkscape="http://www.inkscape.org/namespaces/inkscape"
   width="200mm"
   height="200mm"
   viewBox="0 0 200 200"
   version="1.1"
   id="svg14398"
   inkscape:version="0.92.4 (f8dce91, 2019-08-02)"
   sodipodi:docname="github_color.svg">
  <defs
     id="defs14392">
    <linearGradient
       inkscape:collect="always"
       xlink:href="#linearGradient30260"
       id="linearGradient14290"
       gradientUnits="userSpaceOnUse"
       x1="20.079126"
       y1="148.28349"
       x2="39.346874"
       y2="148.28349"
       gradientTransform="matrix(10.014131,0,0,10.014131,-196.48777,-1287.7844)" />
    <linearGradient
       id="linearGradient30260"
       inkscape:collect="always">
      <stop
         id="stop30256"
         offset="0"
         style="stop-color:#00a5ff;stop-opacity:1" />
      <stop
         id="stop30258"
         offset="1"
         style="stop-color:#7300ff;stop-opacity:1" />
    </linearGradient>
    <linearGradient
       inkscape:collect="always"
       xlink:href="#linearGradient30674"
       id="linearGradient14364"
       gradientUnits="userSpaceOnUse"
       gradientTransform="matrix(10.014131,0,0,10.014131,-196.48777,-1287.7844)"
       x1="22.529554"
       y1="149.86237"
       x2="36.050591"
       y2="149.86237" />
    <linearGradient
       inkscape:collect="always"
       id="linearGradient30674">
      <stop
         style="stop-color:#fc8102;stop-opacity:1"
         offset="0"
         id="stop30670" />
      <stop
         style="stop-color:#fbb231;stop-opacity:1"
         offset="1"
         id="stop30672" />
    </linearGradient>
    <linearGradient
       inkscape:collect="always"
       xlink:href="#linearGradient30348"
       id="linearGradient14367"
       gradientUnits="userSpaceOnUse"
       gradientTransform="matrix(1.4292572,0,0,1.4292572,569.09833,-1525.2116)"
       x1="-380.03589"
       y1="1241.5577"
       x2="-339.76651"
       y2="1241.5577" />
    <linearGradient
       id="linearGradient30348"
       inkscape:collect="always">
      <stop
         id="stop30344"
         offset="0"
         style="stop-color:#ff1300;stop-opacity:1;" />
      <stop
         id="stop30346"
         offset="1"
         style="stop-color:#e43729;stop-opacity:1" />
    </linearGradient>
  </defs>
  <sodipodi:namedview
     id="base"
     pagecolor="#ffffff"
     bordercolor="#666666"
     borderopacity="1.0"
     inkscape:pageopacity="0.0"
     inkscape:pageshadow="2"
     inkscape:zoom="0.35"
     inkscape:cx="-112.85714"
     inkscape:cy="560"
     inkscape:document-units="mm"
     inkscape:current-layer="layer1"
     showgrid="false"
     inkscape:window-width="1920"
     inkscape:window-height="1044"
     inkscape:window-x="0"
     inkscape:window-y="0"
     inkscape:window-maximized="1" />
  <metadata
     id="metadata14395">
    <rdf:RDF>
      <cc:Work
         rdf:about="">
        <dc:format>image/svg+xml</dc:format>
        <dc:type
           rdf:resource="http://purl.org/dc/dcmitype/StillImage" />
        <dc:title></dc:title>
      </cc:Work>
    </rdf:RDF>
  </metadata>
  <g
     inkscape:label="Layer 1"
     inkscape:groupmode="layer"
     id="layer1"
     transform="translate(0,-97)">
    <path
       sodipodi:nodetypes="csssccc"
       inkscape:connector-curvature="0"
       id="path14316"
       d="m 79.061064,249.55424 c 0,0 -17.028284,4.67967 -21.239976,-1.02149 -3.931315,-5.3217 -13.227159,-21.07111 -25.517288,-14.07518 -8.442022,4.80545 9.324687,5.69044 15.598999,17.67877 5.294226,10.11571 12.195596,11.912 12.195596,11.912 0,0 8.908162,3.44822 18.682266,-0.21396 z"
       style="fill:none;stroke:url(#linearGradient14367);stroke-width:7.86091471;stroke-linecap:round;stroke-linejoin:miter;stroke-miterlimit:4;stroke-dasharray:none;stroke-opacity:1" />
    <path
       sodipodi:nodetypes="cccccccccccccccc"
       d="m 124.74551,285.25508 c 0,0 0,-19.08701 0.1202,-30.20263 0.1202,-11.14578 -5.08718,-15.88248 -5.08718,-15.88248 0,0 4.69664,-0.66089 10.91541,-2.6537 9.77379,-3.1345 23.3129,-10.40471 28.04957,-26.91806 7.70088,-26.98809 -7.24022,-40.44698 -7.24022,-40.44698 4.53641,-14.82097 -1.25175,-24.75502 -1.25175,-24.75502 -15.49187,0.74107 -25.23561,9.30318 -25.23561,9.30318 -11.72656,-3.51812 -22.53593,-3.54656 -22.53593,-3.54656 0,0 -12.002816,0.03 -23.739377,3.54656 0,0 -9.733728,-8.56211 -25.305715,-9.3432 0,0 -5.557835,9.3432 -0.941322,24.21419 0,0 -15.171408,14.03974 -7.470541,41.02783 7.750934,26.9981 38.924933,29.69196 38.924933,29.69196 -5.985842,8.57569 -4.952806,15.36037 -5.162891,26.78342 l 0.11577,19.06129"
       style="fill:none;stroke:url(#linearGradient14364);stroke-width:8.5755434;stroke-linecap:butt;stroke-linejoin:miter;stroke-miterlimit:4;stroke-dasharray:none;stroke-opacity:1"
       id="path14260"
       inkscape:connector-curvature="0" />
    <path
       d="m 193.94316,197.16096 c 0,51.28232 -41.57867,92.87099 -92.90109,92.87099 -51.282365,0 -92.861043,-41.58867 -92.861043,-92.87099 0,-51.32248 41.578678,-92.90115 92.861043,-92.90115 51.32242,0 92.90109,41.57867 92.90109,92.90115 z"
       style="fill:none;stroke:url(#linearGradient14290);stroke-width:10.0048008;stroke-linecap:round;stroke-linejoin:round;stroke-miterlimit:4;stroke-dasharray:none;stroke-opacity:1"
       id="path14264"
       inkscape:connector-curvature="0" />
  </g>
</svg>
